<svg width="20" height="19" viewBox="0 0 20 19" fill="none" xmlns="http://www.w3.org/2000/svg">
<path d="M19.1013 4.20919L16.947 6.31774L15.8018 5.19688L17.0733 3.95156H9.8262C6.69993 3.95156 4.1568 6.44061 4.1568 9.5004C4.1568 10.3525 4.36009 11.1571 4.71321 11.8785H2.97108C2.69976 11.1325 2.53697 10.3367 2.53697 9.5004C2.53697 5.56707 5.8074 2.36618 9.8262 2.36618H17.0733L15.8018 1.12086L16.947 0L19.1005 2.10776C19.691 2.68722 19.691 3.62973 19.1005 4.20839L19.1013 4.20919ZM9.17827 5.53694V6.48817H8.91343C7.94315 6.48817 7.15348 7.26105 7.15348 8.21069C7.15348 9.02954 7.74796 9.73979 8.5684 9.89991L10.8289 10.343C11.0459 10.3858 11.2031 10.5737 11.2031 10.7893C11.2031 11.0398 10.9941 11.2443 10.7382 11.2443H9.01629C8.76035 11.2443 8.54249 11.0771 8.47283 10.848H7.16077C7.24338 11.7794 8.04358 12.5126 9.01629 12.5126H9.17827V13.4639H10.4741V12.5126H10.7382C11.7093 12.5126 12.4989 11.7397 12.4989 10.7901C12.4989 9.97125 11.9044 9.261 11.084 9.10088L8.82272 8.65777C8.60647 8.61496 8.44935 8.42709 8.44935 8.21227C8.44935 7.96178 8.65749 7.75727 8.91343 7.75727H10.6361C10.892 7.75727 11.1099 7.92453 11.1796 8.15361H12.4916C12.409 7.2222 11.6088 6.48897 10.6361 6.48897H10.4741V5.53774L9.17827 5.53694ZM14.9392 7.12232C15.2923 7.84367 15.4956 8.64825 15.4956 9.5004C15.4956 12.5602 12.9517 15.0492 9.8262 15.0492H2.57908L3.85146 13.8039L2.70624 12.683L0.552678 14.7908C-0.0393693 15.3703 -0.0393693 16.3128 0.552678 16.8922L2.70624 19L3.85146 17.8791L2.57908 16.6338H9.8262C13.8458 16.6338 17.1154 13.4329 17.1154 9.4996C17.1154 8.66331 16.9535 7.86745 16.6813 7.12153H14.9392V7.12232Z" fill="#484C52"/>
</svg>
