<svg width="14" height="14" viewBox="0 0 14 14" fill="none" xmlns="http://www.w3.org/2000/svg">
<g clip-path="url(#clip0_2777_1703)">
<path d="M13.4166 1.75H12.25V0.583333C12.25 0.428624 12.1885 0.280251 12.0791 0.170854C11.9697 0.0614582 11.8214 0 11.6666 0C11.5119 0 11.3636 0.0614582 11.2542 0.170854C11.1448 0.280251 11.0833 0.428624 11.0833 0.583333V1.75H9.91665C9.76194 1.75 9.61356 1.81146 9.50417 1.92085C9.39477 2.03025 9.33331 2.17862 9.33331 2.33333C9.33331 2.48804 9.39477 2.63642 9.50417 2.74581C9.61356 2.85521 9.76194 2.91667 9.91665 2.91667H11.0833V4.08333C11.0833 4.23804 11.1448 4.38642 11.2542 4.49581C11.3636 4.60521 11.5119 4.66667 11.6666 4.66667C11.8214 4.66667 11.9697 4.60521 12.0791 4.49581C12.1885 4.38642 12.25 4.23804 12.25 4.08333V2.91667H13.4166C13.5714 2.91667 13.7197 2.85521 13.8291 2.74581C13.9385 2.63642 14 2.48804 14 2.33333C14 2.17862 13.9385 2.03025 13.8291 1.92085C13.7197 1.81146 13.5714 1.75 13.4166 1.75Z" fill="white"/>
</g>
<defs>
<clipPath id="clip0_2777_1703">
<rect width="14" height="14" fill="white"/>
</clipPath>
</defs>
</svg>
