<svg width="19" height="18" viewBox="0 0 19 18" fill="none" xmlns="http://www.w3.org/2000/svg">
<path d="M13.466 4.87445C13.466 4.97289 13.4625 5.07132 13.4555 5.16976C13.452 5.21898 13.4467 5.26644 13.4415 5.31566C13.438 5.34554 13.4485 5.40882 13.4415 5.31742C13.4432 5.3473 13.4327 5.38421 13.4275 5.41234C13.3959 5.60746 13.3485 5.80082 13.2872 5.9889C13.2574 6.07855 13.224 6.16644 13.1907 6.25257C13.1609 6.32816 13.224 6.1805 13.189 6.25433C13.1802 6.27542 13.1697 6.29652 13.1609 6.31761C13.1381 6.36683 13.1153 6.41605 13.089 6.46351C13.0049 6.62875 12.9084 6.78695 12.8014 6.93812C12.7786 6.97152 12.7523 7.02425 12.719 7.04886C12.7804 7.0014 12.7383 7.02425 12.7173 7.05062C12.7032 7.0682 12.6892 7.08578 12.6734 7.10335C12.6103 7.1807 12.5437 7.25453 12.4735 7.32484C12.4104 7.39164 12.3438 7.45492 12.2754 7.51644C12.2403 7.54632 12.207 7.57796 12.1719 7.60609C12.1544 7.62015 12.1369 7.63597 12.1193 7.65003C12.107 7.65882 12.0948 7.66937 12.0825 7.67816C12.1228 7.64652 12.1281 7.643 12.0983 7.66585C11.9492 7.7766 11.7967 7.87855 11.6353 7.96644C11.5547 8.01214 11.4723 8.05257 11.3881 8.093C11.367 8.10355 11.346 8.11234 11.325 8.12113C11.2496 8.15453 11.3986 8.09124 11.3232 8.12289C11.2724 8.14398 11.2215 8.16331 11.1706 8.18265C10.9848 8.24945 10.7954 8.30218 10.6025 8.34085C10.5552 8.34964 10.5078 8.35843 10.4605 8.36546C10.4394 8.36898 10.4114 8.37777 10.3886 8.37601C10.4587 8.38128 10.4377 8.36898 10.4096 8.37249C10.3044 8.38304 10.1992 8.39359 10.094 8.3971C9.8888 8.40414 9.68715 8.39359 9.48373 8.37249C9.39956 8.36371 9.5644 8.3848 9.48198 8.37249C9.45743 8.36898 9.43464 8.36546 9.41009 8.36195C9.36274 8.35492 9.31539 8.34613 9.2698 8.33558C9.16985 8.31449 9.0699 8.28988 8.96995 8.26175C8.88051 8.23539 8.79108 8.20726 8.70165 8.17386C8.66483 8.1598 8.628 8.14574 8.59293 8.13167C8.58592 8.12816 8.57891 8.1264 8.57189 8.12289C8.53682 8.10882 8.54383 8.11058 8.59118 8.13167C8.56838 8.13167 8.5263 8.10355 8.50701 8.093C8.33166 8.01214 8.16331 7.91898 8.00199 7.81175C7.96341 7.78714 7.92483 7.76078 7.88801 7.73441C7.85469 7.71156 7.80208 7.68519 7.77753 7.65179C7.82488 7.71332 7.80208 7.67113 7.77578 7.65003C7.75825 7.63597 7.74071 7.62191 7.72318 7.60609C7.68284 7.57093 7.64076 7.53578 7.60218 7.50062C7.4654 7.37757 7.33915 7.24398 7.22166 7.10335C7.20763 7.08578 7.19185 7.0682 7.17782 7.05062C7.15678 7.02425 7.11294 7.0014 7.17607 7.04886C7.1445 7.02425 7.1182 6.96976 7.09365 6.93812C7.03578 6.85726 6.98142 6.77289 6.93057 6.68675C6.88323 6.60765 6.83763 6.52679 6.7973 6.44242C6.77626 6.40023 6.75697 6.3598 6.73593 6.31761C6.72541 6.29652 6.71664 6.27542 6.70787 6.25433C6.69209 6.21917 6.6956 6.22621 6.71489 6.27367C6.70963 6.2596 6.70261 6.24554 6.69735 6.22972C6.62721 6.0557 6.56934 5.87464 6.5255 5.69183C6.50271 5.59867 6.48342 5.5055 6.46939 5.41058C6.46588 5.38597 6.46237 5.36312 6.45887 5.33851C6.44659 5.25414 6.46764 5.42113 6.45887 5.33675C6.45361 5.2805 6.44659 5.22425 6.44309 5.168C6.4273 4.9641 6.42906 4.75843 6.44484 4.55453C6.44835 4.50531 6.45361 4.45785 6.45887 4.40863C6.46764 4.32425 6.44659 4.48949 6.45887 4.40687C6.46237 4.38226 6.46588 4.35941 6.46939 4.3348C6.48692 4.23285 6.50621 4.13089 6.53252 4.0307C6.57811 3.84789 6.63773 3.66859 6.70787 3.49457C6.73768 3.41898 6.67455 3.56664 6.70962 3.49281C6.71839 3.47171 6.72891 3.45062 6.73768 3.42953C6.75697 3.38734 6.77801 3.34515 6.79906 3.30472C6.84465 3.21507 6.89375 3.12718 6.9446 3.04105C6.99195 2.96195 7.0428 2.8846 7.09716 2.80902C7.11995 2.77562 7.14626 2.72289 7.17958 2.69828C7.1182 2.74574 7.16029 2.72289 7.18133 2.69652C7.20062 2.67191 7.21991 2.64906 7.2392 2.62621C7.35668 2.48558 7.48645 2.35374 7.62322 2.2307C7.65829 2.20082 7.69161 2.16917 7.72668 2.14105C7.74422 2.12699 7.76175 2.11117 7.77929 2.0971C7.80559 2.07601 7.82839 2.03207 7.78104 2.09535C7.80559 2.06371 7.85995 2.03734 7.89151 2.01273C7.93535 1.98109 7.97919 1.95121 8.02478 1.92132C8.18611 1.81585 8.3562 1.72269 8.53156 1.64359C8.54559 1.63656 8.57891 1.61546 8.59469 1.61546C8.58066 1.62074 8.56663 1.62777 8.55436 1.63304C8.56838 1.62777 8.58241 1.62074 8.59819 1.61546C8.63502 1.6014 8.67009 1.58734 8.70691 1.57328C8.80161 1.53812 8.8998 1.50648 8.998 1.47835C9.08919 1.45199 9.18213 1.43089 9.27506 1.41156C9.32241 1.40277 9.36975 1.39398 9.41535 1.38519C9.4399 1.38167 9.46269 1.37816 9.48724 1.37464C9.52582 1.36937 9.51881 1.36937 9.4662 1.37816L9.51354 1.37289C9.71696 1.35003 9.92037 1.343 10.1255 1.35179C10.2185 1.35531 10.3114 1.3641 10.4043 1.37464C10.4359 1.37816 10.4762 1.36761 10.3956 1.37289C10.4166 1.37113 10.4447 1.37992 10.4675 1.38343C10.5218 1.39222 10.5779 1.40277 10.6323 1.41332C10.8252 1.45199 11.0146 1.50648 11.1987 1.57503C11.2425 1.59085 11.2864 1.60843 11.3285 1.62601C11.4039 1.65589 11.2566 1.59261 11.3302 1.62777C11.3513 1.63656 11.3723 1.6471 11.3933 1.65589C11.4845 1.69808 11.574 1.74378 11.6616 1.793C11.7423 1.83871 11.8212 1.88617 11.8984 1.93714C11.9299 1.95824 11.9615 1.97933 11.9931 2.00218C12.0316 2.02855 12.0948 2.06019 12.1228 2.0971C12.0755 2.03558 12.0983 2.07777 12.1246 2.09886C12.1421 2.11292 12.1596 2.12699 12.1772 2.14281C12.2123 2.17269 12.2473 2.20257 12.2806 2.23246C12.3543 2.29925 12.4262 2.36781 12.4946 2.43988C12.5577 2.50667 12.6191 2.57523 12.6787 2.64554C12.6927 2.66312 12.7085 2.6807 12.7225 2.69828C12.7436 2.72464 12.7874 2.74749 12.7243 2.70003C12.7611 2.72816 12.7927 2.79144 12.819 2.83011C12.9242 2.98128 13.0206 3.14124 13.1031 3.30648C13.1241 3.34867 13.1434 3.3891 13.1644 3.43128C13.1749 3.45238 13.1837 3.47347 13.1925 3.49457C13.2258 3.57015 13.1627 3.42074 13.1942 3.49632C13.2311 3.59124 13.2679 3.68617 13.2977 3.78285C13.3573 3.97093 13.4047 4.16429 13.4345 4.36117C13.438 4.38226 13.4467 4.41039 13.445 4.43324C13.452 4.34359 13.4415 4.40687 13.445 4.43499C13.4503 4.48421 13.4555 4.53167 13.459 4.58089C13.4608 4.67757 13.4643 4.77601 13.466 4.87445C13.466 5.05902 13.6274 5.2348 13.8167 5.22601C14.0061 5.21722 14.1675 5.07132 14.1675 4.87445C14.1639 4.01312 13.9027 3.14828 13.4012 2.44515C12.8944 1.73499 12.1965 1.1971 11.3793 0.89476C10.5604 0.592417 9.63454 0.564292 8.79634 0.803354C7.98796 1.03363 7.24446 1.51351 6.70962 2.1639C6.14674 2.85121 5.81006 3.68089 5.73991 4.56683C5.67153 5.43167 5.88721 6.32113 6.33612 7.06292C6.76925 7.77835 7.42157 8.37249 8.18611 8.71703C9.00677 9.08792 9.91335 9.19339 10.7989 9.01761C11.6266 8.85238 12.4034 8.4182 12.9873 7.80824C13.573 7.19652 13.9798 6.40374 14.1096 5.56351C14.1447 5.33499 14.1675 5.10472 14.1675 4.87445C14.1675 4.68988 14.0061 4.5141 13.8167 4.52289C13.6256 4.53167 13.466 4.67757 13.466 4.87445ZM15.7246 16.6535H4.17049C4.15471 16.6535 4.13717 16.6535 4.12139 16.6518C4.1249 16.6518 4.07405 16.65 4.07405 16.6483C4.07229 16.6448 4.16523 16.6659 4.09684 16.65C4.06703 16.643 4.03547 16.636 4.00566 16.6272C3.99514 16.6237 3.98286 16.6166 3.97234 16.6166C3.9285 16.6096 4.03021 16.65 3.99163 16.6254C3.96883 16.6114 3.94428 16.6008 3.92149 16.5885C3.89869 16.5744 3.87765 16.5586 3.85485 16.5446C3.82153 16.5252 3.88291 16.5621 3.88116 16.5657C3.8794 16.5674 3.84258 16.5323 3.83907 16.5287C3.81978 16.5112 3.80225 16.4901 3.78471 16.4707C3.74263 16.4285 3.81803 16.527 3.7777 16.4602C3.76367 16.4373 3.74964 16.4162 3.73561 16.3916C3.7286 16.3776 3.72158 16.3635 3.71457 16.3512C3.68827 16.3002 3.72334 16.3723 3.72334 16.3723C3.70755 16.3741 3.68827 16.2299 3.6795 16.2141C3.70405 16.2598 3.68476 16.2739 3.683 16.2369C3.683 16.2211 3.68125 16.2053 3.6795 16.1877V14.1592C3.6795 13.9817 3.70755 13.8077 3.71106 13.6319C3.71106 13.6319 3.70054 13.7057 3.7058 13.6653C3.70755 13.6494 3.71106 13.6336 3.71281 13.6178C3.71632 13.5897 3.72158 13.5616 3.72684 13.5352C3.73736 13.4754 3.74789 13.4174 3.76191 13.3594C3.78646 13.2469 3.81627 13.1362 3.84959 13.0272C3.88466 12.9147 3.92499 12.8057 3.96883 12.6967C3.99163 12.6387 3.93902 12.7653 3.97409 12.6844C3.98461 12.6598 3.99689 12.6352 4.00741 12.6106C4.03196 12.5578 4.05826 12.5051 4.08457 12.4541C4.18978 12.252 4.31253 12.0621 4.44755 11.8776C4.48438 11.8284 4.40547 11.9285 4.45632 11.867C4.47385 11.8459 4.48964 11.8248 4.50717 11.8037C4.544 11.7598 4.58082 11.7159 4.6194 11.6737C4.69655 11.5875 4.77722 11.5067 4.86139 11.4276C4.94205 11.352 5.02797 11.2799 5.1139 11.2096C5.16124 11.1709 5.06129 11.2483 5.12442 11.2008C5.14546 11.185 5.16826 11.1692 5.1893 11.1534C5.2384 11.1182 5.28925 11.083 5.34186 11.0496C5.52949 10.9266 5.72764 10.8229 5.93105 10.7297C5.98716 10.7034 5.86968 10.7543 5.94333 10.7244C5.96788 10.7139 5.99418 10.7034 6.01873 10.6946C6.07659 10.6717 6.13622 10.6506 6.19584 10.6313C6.30456 10.5961 6.41328 10.5645 6.5255 10.5381C6.63773 10.5118 6.75171 10.4889 6.86569 10.4713C6.87796 10.4696 6.90076 10.4625 6.91304 10.4643C6.91479 10.4643 6.83939 10.4731 6.87972 10.4696C6.90778 10.466 6.93583 10.4625 6.96389 10.4608C7.02877 10.4537 7.09365 10.4485 7.15853 10.445C7.2918 10.4379 7.42683 10.4397 7.56009 10.4397H12.5121C12.6857 10.4397 12.8576 10.4678 13.0294 10.4713C13.0294 10.4713 12.9558 10.4608 12.9961 10.4661C13.0119 10.4678 13.0277 10.4713 13.0434 10.4731C13.0715 10.4766 13.0995 10.4819 13.1258 10.4871C13.1855 10.4977 13.2433 10.5082 13.3012 10.5223C13.4134 10.5469 13.5239 10.5768 13.6326 10.6102C13.7449 10.6453 13.8536 10.6858 13.9623 10.7297C14.0202 10.7526 13.8939 10.6998 13.9746 10.735C13.9991 10.7455 14.0237 10.7578 14.0482 10.7684C14.1008 10.793 14.1534 10.8194 14.2043 10.8457C14.4059 10.9512 14.5953 11.0743 14.7794 11.2096C14.8285 11.2465 14.7286 11.1674 14.79 11.2184C14.811 11.236 14.832 11.2518 14.8531 11.2694C14.8969 11.3063 14.9408 11.3432 14.9829 11.3819C15.0688 11.4592 15.1494 11.5401 15.2284 11.6244C15.3038 11.7053 15.3756 11.7914 15.4458 11.8776C15.4844 11.925 15.4072 11.8248 15.4546 11.8881C15.4703 11.9092 15.4861 11.9321 15.5019 11.9532C15.537 12.0024 15.572 12.0534 15.6054 12.1061C15.7281 12.2942 15.8316 12.4928 15.9245 12.6967C15.9508 12.753 15.9 12.6352 15.9298 12.709C15.9403 12.7336 15.9508 12.76 15.9596 12.7846C15.9824 12.8426 16.0034 12.9024 16.0227 12.9621C16.0578 13.0711 16.0893 13.1801 16.1156 13.2926C16.1419 13.4051 16.1647 13.5194 16.1823 13.6336C16.184 13.6459 16.191 13.6688 16.1893 13.6811C16.1893 13.6828 16.1805 13.6073 16.184 13.6477C16.1875 13.6758 16.191 13.7039 16.1928 13.7321C16.1998 13.7971 16.2051 13.8621 16.2086 13.9272C16.2191 14.1346 16.2138 14.342 16.2138 14.5494C16.2138 15.0856 16.2191 15.6217 16.2138 16.1578V16.1895C16.2138 16.2018 16.2068 16.2967 16.2121 16.2387C16.2174 16.1807 16.2033 16.2703 16.1998 16.2844C16.1981 16.2914 16.177 16.3741 16.1718 16.3723C16.1665 16.3723 16.2068 16.3073 16.184 16.3407C16.1788 16.3494 16.1735 16.3618 16.1683 16.3723C16.1542 16.3987 16.1384 16.425 16.1227 16.4514C16.1174 16.4602 16.1086 16.469 16.1034 16.4795C16.0823 16.5182 16.149 16.4321 16.1156 16.4619C16.0964 16.4795 16.0806 16.5024 16.0613 16.52C16.0525 16.5287 16.0437 16.5358 16.0367 16.5428C16.0332 16.5446 16.0315 16.5481 16.028 16.5498C16.0052 16.5692 16.0052 16.5692 16.028 16.5516C16.0367 16.5305 16.0508 16.5358 16.028 16.5516C16.0157 16.5604 16.0034 16.5692 15.9894 16.5762C15.9666 16.5903 15.9438 16.6026 15.9192 16.6149C15.8509 16.6518 15.9666 16.6026 15.907 16.6202C15.8807 16.6272 15.8561 16.636 15.8281 16.643C15.8158 16.6465 15.8053 16.6483 15.793 16.65C15.7246 16.6659 15.8175 16.6448 15.8158 16.6483C15.8175 16.6553 15.7351 16.6535 15.7246 16.6535C15.5405 16.6553 15.3651 16.8135 15.3739 17.0051C15.3827 17.1932 15.5282 17.3602 15.7246 17.3567C16.3576 17.3479 16.8609 16.861 16.9135 16.2334C16.9293 16.0401 16.917 15.8414 16.917 15.6481C16.917 15.1137 16.9293 14.5793 16.9153 14.045C16.8907 13.0272 16.5137 12.0534 15.8596 11.2782C15.2354 10.5364 14.3428 10.0073 13.3924 9.82093C12.9277 9.72953 12.4665 9.73304 11.9966 9.73304H8.2317C7.89678 9.73304 7.56185 9.72425 7.22692 9.73656C6.21512 9.77347 5.24717 10.1602 4.48087 10.8229C3.74789 11.4575 3.22884 12.3575 3.05348 13.3137C2.9395 13.9307 2.97457 14.5653 2.97457 15.1893V16.0524C2.97457 16.1297 2.97457 16.2053 2.98334 16.2827C3.02016 16.5797 3.14993 16.8662 3.38315 17.0614C3.61812 17.2582 3.89694 17.3584 4.20381 17.3584H15.7229C15.907 17.3584 16.0823 17.1967 16.0736 17.0069C16.0665 16.8135 15.921 16.6535 15.7246 16.6535Z" fill="#ABAFB1"/>
</svg>
