<svg width="28" height="22" viewBox="0 0 28 22" fill="none" xmlns="http://www.w3.org/2000/svg">
<path d="M24.7097 1H3.03226C1.90987 1 1 1.90987 1 3.03226V16.5806C1 17.703 1.90987 18.6129 3.03226 18.6129H24.7097C25.8321 18.6129 26.7419 17.703 26.7419 16.5806V3.03226C26.7419 1.90987 25.8321 1 24.7097 1Z" fill="white" stroke="#695CFF"/>
<path d="M11.1992 13.8703H9.70889L9.11547 12.3285H6.40173L5.84083 13.8703H4.38708L7.03173 7.08252H8.48141L11.1992 13.8703ZM8.67515 11.185L7.74031 8.66497L6.82308 11.185H8.67515ZM13.0838 10.4534L11.9024 10.2393C12.0351 9.7651 12.2641 9.41284 12.5879 9.18388C12.9131 8.95491 13.3941 8.8411 14.0322 8.8411C14.6134 8.8411 15.0456 8.9102 15.3288 9.04975C15.6133 9.18523 15.8124 9.36 15.9262 9.57271C16.0441 9.78271 16.1024 10.1702 16.1024 10.7352L16.0888 12.2539C16.0888 12.6875 16.1091 13.0059 16.1484 13.2132C16.1918 13.4164 16.2704 13.6359 16.3855 13.8703H15.0984C15.0511 13.7438 15.0091 13.6154 14.9724 13.4855C14.9588 13.4344 14.9434 13.3838 14.9264 13.3337C14.7042 13.5492 14.4657 13.7117 14.2137 13.8188C13.9604 13.9272 13.6908 13.9814 13.4035 13.9814C12.8968 13.9814 12.4958 13.8445 12.2031 13.5695C12.0611 13.4363 11.9489 13.2744 11.8742 13.0945C11.7994 12.9146 11.7638 12.7209 11.7696 12.5263C11.7696 12.2499 11.8346 12.0019 11.9674 11.7865C12.0987 11.568 12.2921 11.3935 12.5229 11.2852C12.7641 11.1687 13.1095 11.0671 13.5607 10.9804C14.169 10.8666 14.5904 10.7596 14.8248 10.6606V10.5319C14.8248 10.2813 14.7624 10.1038 14.6392 9.99949C14.5172 9.8911 14.2828 9.83691 13.9401 9.83691C13.7097 9.83691 13.5282 9.88297 13.3981 9.97646C13.2681 10.0659 13.1637 10.2244 13.0838 10.4534ZM14.8248 11.5088C14.6581 11.563 14.3939 11.6307 14.0322 11.7079C13.6704 11.7852 13.4361 11.861 13.3236 11.9342C13.2459 11.983 13.182 12.0508 13.1377 12.1311C13.0933 12.2115 13.0701 12.3017 13.0702 12.3935C13.0702 12.575 13.138 12.7322 13.2735 12.865C13.409 12.9977 13.5824 13.0641 13.7924 13.0641C14.0349 13.0615 14.2701 12.9807 14.463 12.8338C14.6123 12.7287 14.7221 12.5765 14.7746 12.4016C14.8071 12.2905 14.8248 12.0792 14.8248 11.7676V11.5088Z" fill="#303C45"/>
<path d="M21.3225 8.45152C21.0098 8.03383 20.6046 7.69417 20.1388 7.45913C19.6729 7.22408 19.159 7.10003 18.6372 7.09668H18.6128C18.4332 7.09668 18.2609 7.16805 18.1338 7.29509C18.0068 7.42213 17.9354 7.59444 17.9354 7.7741C17.9354 7.95376 18.0068 8.12607 18.1338 8.25311C18.2609 8.38015 18.4332 8.45152 18.6128 8.45152C19.1518 8.45152 19.6687 8.66563 20.0499 9.04675C20.431 9.42787 20.6451 9.94479 20.6451 10.4838V18.6128C20.6451 19.1485 20.4336 19.6626 20.0566 20.0432C19.6796 20.4237 19.1675 20.6401 18.6318 20.6451H18.6128C18.4332 20.6451 18.2609 20.7164 18.1338 20.8435C18.0068 20.9705 17.9354 21.1428 17.9354 21.3225C17.9354 21.5021 18.0068 21.6745 18.1338 21.8015C18.2609 21.9285 18.4332 21.9999 18.6128 21.9999C19.7211 21.9999 20.7047 21.4688 21.3225 20.6451C21.9403 21.4688 22.9239 21.9999 24.0322 21.9999C24.1212 21.9987 24.209 21.9799 24.2907 21.9447C24.3724 21.9095 24.4464 21.8586 24.5084 21.7948C24.5705 21.731 24.6193 21.6556 24.6522 21.573C24.6851 21.4903 24.7014 21.402 24.7001 21.313C24.6989 21.224 24.6801 21.1362 24.6449 21.0545C24.6097 20.9728 24.5588 20.8988 24.495 20.8368C24.4312 20.7747 24.3559 20.7259 24.2732 20.693C24.1905 20.6601 24.1022 20.6438 24.0132 20.6451C23.4775 20.6401 22.9655 20.4237 22.5885 20.0432C22.2114 19.6626 21.9999 19.1485 21.9999 18.6128V10.4838C21.9999 9.94479 22.2141 9.42787 22.5952 9.04675C22.9763 8.66563 23.4932 8.45152 24.0322 8.45152C24.2119 8.45152 24.3842 8.38015 24.5112 8.25311C24.6382 8.12607 24.7096 7.95376 24.7096 7.7741C24.7096 7.59444 24.6382 7.42213 24.5112 7.29509C24.3842 7.16805 24.2119 7.09668 24.0322 7.09668H24.0078C22.9104 7.10481 21.9349 7.63455 21.3225 8.45152Z" fill="#40505C"/>
</svg>
