<svg width="19" height="19" viewBox="0 0 19 19" fill="none" xmlns="http://www.w3.org/2000/svg">
<path d="M9.48579 11.8604C9.38182 11.8605 9.27885 11.8401 9.1828 11.8003C9.08674 11.7605 8.9995 11.7021 8.92608 11.6284L6.56534 9.26769C6.49183 9.19418 6.43353 9.10693 6.39375 9.01089C6.35397 8.91486 6.3335 8.81193 6.3335 8.70798C6.3335 8.60403 6.35397 8.5011 6.39375 8.40507C6.43353 8.30903 6.49183 8.22177 6.56534 8.14827C6.63884 8.07477 6.7261 8.01646 6.82213 7.97668C6.91817 7.9369 7.0211 7.91643 7.12504 7.91643C7.22899 7.91643 7.33192 7.9369 7.42796 7.97668C7.52399 8.01646 7.61125 8.07477 7.68475 8.14827L9.48579 9.94931L15.2594 4.17569C15.3329 4.10218 15.4202 4.04388 15.5162 4.0041C15.6123 3.96432 15.7152 3.94385 15.8191 3.94385C15.9231 3.94385 16.026 3.96432 16.122 4.0041C16.2181 4.04388 16.3053 4.10218 16.3788 4.17569C16.4523 4.24919 16.5106 4.33645 16.5504 4.43248C16.5902 4.52852 16.6107 4.63145 16.6107 4.73539C16.6107 4.83934 16.5902 4.94227 16.5504 5.03831C16.5106 5.13434 16.4523 5.2216 16.3788 5.2951L10.0455 11.6284C9.89707 11.7769 9.69574 11.8604 9.48579 11.8604Z" fill="#695CFF"/>
<path d="M9.50008 15.8332C6.00804 15.8332 3.16675 12.9919 3.16675 9.49984C3.16675 6.0078 6.00804 3.1665 9.50008 3.1665C10.4445 3.1665 11.3542 3.36996 12.2028 3.77055C12.2969 3.81499 12.3812 3.87752 12.4511 3.95457C12.521 4.03161 12.575 4.12167 12.61 4.21959C12.6451 4.31751 12.6605 4.42137 12.6555 4.52526C12.6504 4.62914 12.6249 4.73101 12.5805 4.82505C12.536 4.91908 12.4735 5.00344 12.3964 5.07331C12.3194 5.14318 12.2293 5.19719 12.1314 5.23225C12.0335 5.26732 11.9296 5.28275 11.8257 5.27768C11.7219 5.2726 11.62 5.24712 11.526 5.20267C10.8018 4.8626 10.0036 4.71075 9.20516 4.76117C8.40674 4.81159 7.63395 5.06266 6.95834 5.49111C6.28274 5.91957 5.72617 6.51158 5.34016 7.2123C4.95415 7.91303 4.7512 8.69983 4.75008 9.49984C4.75008 12.1195 6.88046 14.2498 9.50008 14.2498C12.1197 14.2498 14.2501 12.1195 14.2501 9.49984C14.2501 9.28988 14.3335 9.08851 14.482 8.94004C14.6304 8.79158 14.8318 8.70817 15.0417 8.70817C15.2517 8.70817 15.4531 8.79158 15.6015 8.94004C15.75 9.08851 15.8334 9.28988 15.8334 9.49984C15.8334 12.9919 12.9921 15.8332 9.50008 15.8332Z" fill="#695CFF"/>
</svg>
